<?xml version="1.0" standalone="no"?>
<!DOCTYPE svg PUBLIC "-//W3C//DTD SVG 20010904//EN"
 "http://www.w3.org/TR/2001/REC-SVG-20010904/DTD/svg10.dtd">
<svg version="1.0" xmlns="http://www.w3.org/2000/svg"
 width="512.000000pt" height="512.000000pt" viewBox="0 0 512.000000 512.000000"
 preserveAspectRatio="xMidYMid meet">

<g transform="translate(0.000000,512.000000) scale(0.100000,-0.100000)"
 stroke="none">
<path d="M4646 5002 c-151 -93 -209 -136 -288 -211 -75 -72 -102 -91 -110 -83
-21 21 -67 14 -95 -14 -25 -25 -26 -34 -8 -89 8 -28 -99 -135 -117 -117 -7 7
-23 12 -36 12 -58 0 -93 -50 -71 -103 12 -28 10 -31 -96 -137 -104 -104 -108
-107 -136 -97 -63 24 -124 -33 -99 -94 12 -27 10 -32 -24 -69 -43 -48 -47 -86
-13 -118 34 -32 70 -28 118 15 l40 37 112 -112 112 -112 -290 -290 -289 -289
-28 59 c-32 66 -88 120 -154 147 l-43 18 149 151 c164 164 173 182 125 229
-55 56 10 114 -1147 -1042 l-1066 -1066 -30 12 c-62 26 -119 -34 -95 -99 10
-28 9 -31 -66 -93 -154 -131 -367 -253 -540 -312 -66 -22 -76 -23 -91 -10 -50
46 -164 58 -236 26 -78 -35 -134 -127 -134 -217 1 -84 23 -111 413 -502 205
-205 390 -384 413 -398 114 -68 271 -20 325 100 32 72 20 186 -26 236 -13 15
-12 25 10 91 59 173 181 386 312 540 62 75 65 76 93 66 65 -24 125 33 99 94
-12 29 -10 32 41 84 l54 54 43 -40 c24 -22 63 -49 86 -60 51 -23 134 -25 184
-4 21 9 91 69 163 140 l126 125 31 -12 c64 -24 119 31 95 95 -12 30 -10 32 68
113 63 64 80 88 80 111 0 46 -25 73 -68 73 -32 0 -46 -9 -119 -82 l-83 -83
-57 58 -58 57 223 222 222 223 57 -57 57 -57 -29 -31 c-77 -80 17 -177 103
-105 26 22 33 23 60 13 63 -24 118 32 94 95 l-12 32 218 217 217 218 32 -12
c64 -24 119 31 95 95 l-12 31 125 126 c71 72 131 142 140 163 37 88 11 192
-66 272 l-39 40 164 164 164 164 30 -12 c62 -26 119 34 95 98 -10 28 -7 32 97
136 106 106 109 108 137 96 53 -22 103 13 103 71 0 13 -5 29 -12 36 -10 10 0
24 44 69 54 54 58 56 85 44 53 -22 103 13 103 71 0 13 -5 29 -11 35 -9 9 11
36 82 111 73 78 119 140 208 283 63 101 117 197 119 212 4 25 -9 42 -115 148
-88 88 -125 119 -143 119 -14 0 -109 -52 -214 -118z m279 -196 c-58 -97 -83
-125 -119 -132 -91 -17 -152 46 -130 135 8 30 22 44 89 89 l79 52 53 -52 52
-51 -24 -41z m-391 -117 c7 -20 23 -51 36 -69 26 -36 104 -90 131 -90 39 0 29
-25 -37 -91 l-69 -69 -112 112 -113 113 67 67 c37 38 72 67 76 65 5 -1 15 -19
21 -38z m-159 -319 l109 -110 -54 -55 -55 -55 -112 112 -113 113 52 52 c29 29
55 53 58 53 3 0 55 -49 115 -110z m-220 -220 l110 -110 -110 -110 -110 -110
-112 112 -113 113 107 107 c59 60 110 108 113 108 3 0 55 -49 115 -110z
m-1014 -963 c68 -45 90 -143 46 -208 -53 -79 -134 -100 -212 -54 -100 58 -101
205 -3 265 47 28 125 27 169 -3z m508 -64 c21 -26 31 -48 31 -72 0 -31 -13
-48 -120 -155 l-120 -121 -57 57 -58 58 135 135 c74 74 140 135 147 135 6 0
25 -17 42 -37z m-870 -202 c26 -58 94 -124 151 -147 22 -9 40 -19 40 -22 0 -4
-37 -43 -81 -88 l-82 -82 -29 59 c-33 66 -89 119 -154 146 l-44 18 83 83 c45
45 84 82 87 82 4 0 16 -22 29 -49z m501 -196 l55 -55 -223 -223 -222 -222 -57
58 -58 57 220 220 c121 121 222 220 225 220 3 0 30 -25 60 -55z m-687 -90 c41
-30 71 -98 64 -147 -15 -112 -147 -176 -237 -115 -98 65 -97 199 1 265 28 20
44 23 89 20 34 -2 66 -12 83 -23z m-296 -356 c20 -17 58 -42 84 -54 l48 -22
-82 -81 c-45 -45 -85 -82 -89 -82 -3 0 -13 18 -22 40 -23 57 -89 125 -147 151
-27 13 -49 25 -49 28 0 3 37 42 81 87 l82 82 29 -58 c16 -32 45 -73 65 -91z
m-259 -189 c102 -62 95 -223 -11 -274 -135 -63 -274 76 -211 211 37 77 147
108 222 63z m-286 -364 c22 -20 61 -43 85 -52 l45 -17 -179 -179 c-98 -98
-181 -178 -185 -178 -12 0 -218 203 -218 214 0 6 80 91 177 188 l177 177 28
-59 c16 -34 46 -74 70 -94z m428 -101 l55 -56 -121 -119 c-107 -107 -124 -120
-155 -120 -36 0 -109 49 -109 73 0 11 259 277 270 277 3 0 30 -25 60 -55z
m-844 -524 c-134 -158 -231 -316 -301 -486 -21 -49 -39 -94 -42 -98 -3 -5 -54
39 -113 97 -59 58 -114 106 -123 106 -50 0 -94 -51 -81 -94 3 -11 82 -98 175
-192 149 -150 169 -174 169 -203 0 -37 -38 -81 -70 -81 -12 0 -33 6 -48 14
-33 18 -725 712 -741 743 -17 34 -13 62 14 88 15 16 35 25 56 25 27 0 47 -15
131 -97 88 -87 102 -97 134 -97 26 0 42 7 55 23 27 33 23 65 -11 105 -17 19
-27 37 -23 39 4 3 47 21 95 41 173 71 351 181 498 309 l75 65 112 -110 111
-111 -72 -86z"/>
</g>
</svg>
