<?xml version="1.0" standalone="no"?>
<!DOCTYPE svg PUBLIC "-//W3C//DTD SVG 20010904//EN"
 "http://www.w3.org/TR/2001/REC-SVG-20010904/DTD/svg10.dtd">
<svg version="1.0" xmlns="http://www.w3.org/2000/svg"
 width="512.000000pt" height="512.000000pt" viewBox="0 0 512.000000 512.000000"
 preserveAspectRatio="xMidYMid meet">

<g transform="translate(0.000000,512.000000) scale(0.100000,-0.100000)"
stroke="none">
<path d="M3336 5099 c-38 -30 -35 -74 8 -119 39 -40 64 -107 97 -260 30 -141
33 -430 6 -560 -40 -189 -104 -344 -204 -500 -84 -130 -163 -217 -527 -580
l-336 -335 -60 60 c-52 51 -58 61 -46 74 22 25 27 57 15 84 -13 29 -59 52 -87
43 -10 -4 -58 -47 -107 -96 -82 -84 -87 -92 -81 -122 11 -58 70 -84 115 -50
l28 20 59 -59 59 -59 -140 -140 -140 -140 -59 59 c-57 57 -58 59 -42 82 37 53
6 119 -57 119 -28 0 -45 -13 -120 -88 -73 -73 -87 -93 -87 -119 0 -61 67 -93
119 -57 23 16 25 15 82 -42 l59 -59 -140 -140 -140 -140 -59 59 -60 59 20 25
c26 33 24 68 -6 97 -44 45 -69 35 -172 -68 -101 -101 -108 -118 -70 -163 28
-32 76 -37 105 -11 17 16 21 13 77 -43 l60 -60 -560 -561 -560 -560 -35 8
c-51 11 -129 8 -174 -7 -49 -16 -121 -81 -149 -135 -31 -58 -31 -173 1 -235
32 -62 284 -314 347 -348 67 -35 179 -38 240 -5 114 61 173 186 145 304 l-13
51 239 239 238 238 44 -87 c159 -320 456 -505 812 -506 154 0 263 24 395 88
128 63 192 116 443 368 241 243 248 253 197 303 -50 50 -58 45 -319 -213 -133
-131 -268 -255 -301 -277 -127 -84 -318 -133 -466 -121 -107 9 -181 30 -284
80 -199 98 -342 277 -396 496 -28 112 -23 300 11 400 43 126 116 244 204 330
l46 44 77 -76 76 -76 -64 -70 c-106 -114 -151 -227 -151 -378 0 -230 142 -429
362 -505 53 -19 86 -23 175 -23 126 1 198 22 295 86 30 20 301 284 601 585
594 596 585 585 624 738 44 173 -11 371 -140 500 -106 106 -237 159 -390 158
-147 -1 -254 -46 -372 -157 l-64 -60 -77 77 -76 77 39 41 c104 107 257 195
392 225 105 23 301 15 393 -16 187 -63 337 -184 433 -350 14 -25 40 -88 58
-140 30 -88 33 -105 33 -225 0 -137 -12 -202 -60 -312 -44 -101 -99 -169 -316
-389 -192 -194 -218 -224 -218 -252 0 -41 31 -72 72 -72 28 0 56 24 236 203
231 229 285 294 348 422 69 141 87 223 87 395 0 172 -18 253 -88 397 -92 189
-247 340 -437 427 l-71 32 84 73 c147 127 341 245 481 290 40 13 78 53 78 81
0 10 -9 29 -21 44 -37 47 -104 31 -299 -70 -138 -72 -271 -167 -389 -280 l-97
-92 -156 -3 -156 -4 171 175 c188 192 275 305 361 470 130 250 186 509 172
790 -4 74 -10 154 -15 178 -5 23 -6 42 -2 42 8 0 1121 -1113 1121 -1121 0 -4
-21 -2 -47 4 -27 5 -128 10 -226 11 l-179 1 -24 -28 c-29 -34 -30 -56 -4 -89
19 -25 22 -25 202 -31 267 -9 473 -55 538 -122 43 -45 88 -48 119 -9 46 58 84
16 -832 931 -915 916 -873 878 -931 832z m-185 -2549 c123 -23 229 -106 283
-220 28 -58 31 -75 31 -160 0 -86 -3 -102 -31 -160 -17 -36 -55 -92 -85 -123
l-54 -58 -275 276 -275 276 60 56 c62 59 135 98 207 112 61 12 78 12 139 1z
m-691 -95 l75 -75 -140 -140 -140 -140 -77 77 -78 78 137 137 c76 76 140 138
143 138 3 0 39 -34 80 -75z m458 -458 l272 -272 -140 -140 -140 -140 -275 275
-275 275 137 137 c76 76 140 138 143 138 3 0 128 -123 278 -273z m-908 -142
l-140 -140 -77 78 -78 77 140 140 140 140 77 -77 78 -78 -140 -140z m660 -650
c-74 -74 -139 -135 -145 -135 -6 0 -132 121 -280 270 l-270 270 140 140 140
140 275 -275 275 -275 -135 -135z m-522 22 l273 -274 -58 -53 c-32 -29 -87
-67 -123 -84 -59 -28 -74 -31 -160 -31 -82 0 -103 4 -153 27 -199 93 -285 323
-194 521 21 47 119 167 136 167 3 0 129 -123 279 -273z m-966 -44 l-2 -158
-100 -100 -100 -100 -77 78 -78 77 180 180 c99 99 180 180 180 180 0 0 -1 -71
-3 -157z m-382 -388 l75 -75 -113 -113 -112 -112 -77 78 -78 77 110 110 c60
60 112 110 115 110 3 0 39 -34 80 -75z m-487 -189 c50 -22 293 -274 302 -314
16 -76 -62 -152 -140 -138 -34 7 -61 29 -177 144 -115 116 -137 143 -144 177
-9 51 18 103 66 127 42 22 51 22 93 4z"/>
</g>
</svg>
